<svg id="visual" viewBox="0 0 900 600" width="900" height="600" xmlns="http://www.w3.org/2000/svg" xmlns:xlink="http://www.w3.org/1999/xlink" version="1.1"><rect x="0" y="0" width="900" height="600" fill="#2E3440"></rect><defs><linearGradient id="grad1_0" x1="33.3%" y1="0%" x2="100%" y2="100%"><stop offset="20%" stop-color="#2e3440" stop-opacity="1"></stop><stop offset="80%" stop-color="#2e3440" stop-opacity="1"></stop></linearGradient></defs><defs><linearGradient id="grad2_0" x1="0%" y1="0%" x2="66.7%" y2="100%"><stop offset="20%" stop-color="#2e3440" stop-opacity="1"></stop><stop offset="80%" stop-color="#2e3440" stop-opacity="1"></stop></linearGradient></defs><g transform="translate(900, 0)"><path d="M0 243.4C-28.1 231.4 -56.3 219.5 -86.9 209.7C-117.5 199.9 -150.6 192.3 -172.1 172.1C-193.6 151.9 -203.5 119.2 -213.4 88.4C-223.4 57.6 -233.4 28.8 -243.4 0L0 0Z" fill="#5E81AC"></path></g><g transform="translate(0, 600)"><path d="M0 -243.4C31.3 -238.9 62.6 -234.4 92.6 -223.6C122.6 -212.7 151.3 -195.5 172.1 -172.1C192.8 -148.7 205.6 -119.2 216.2 -89.5C226.7 -59.8 235.1 -29.9 243.4 0L0 0Z" fill="#5E81AC"></path></g></svg>